# xmcd
#
# Track frame offsets:
# 150
# 21069
# 41512
# 64947
# 87475
# 109577
# 136285
# 163275
# 183402
# 205142
# 225675
# 247512
# 267175
# 290922
#
# Disc length: 4175 seconds
#
#
# Revision: 3
# Processed by: cddbd v1.5.2PL0 Copyright (c) Steve Scherf et al.
# Submitted via: FreeRIP 2.945 
#
DISCID=c4104d0e
DTITLE=Special Dreams Vol. 6 - VOLUME 6
DYEAR=1900
DGENRE=R&B
TTITLE0=TERRY WELLS - FALLING LEAVES
TTITLE1=T. S. MONKS - THE LAST OF THE WICKED ROMANCERS
TTITLE2=GENOBIA - BLESSING IS DISGUISE
TTITLE3=CHUNKY-A - SORRY
TTITLE4=READY FOR THE WORLD - TONIGHT
TTITLE5=BILLY GRIFFIN - 2ND DAY LOVE STORY
TTITLE6=ROGER TROUTMAN - I WANT BE YOUR MAN
TTITLE7=LTD - APRIL LOVE
TTITLE8=R.P.M. - AS ONE
TTITLE9=SHIRLEY JONES - DO IYOU GET ENOUGH LOVE?
TTITLE10=CROW HEIGHTS AFEAIR - HEART UPSIDE DOWN
TTITLE11=ROBIN'S - WHAT I DO BEST
TTITLE12=THE STONY CITY BAND - SPEND THE NIGHT
TTITLE13=GWENN GUTHRIE - FOR YOU (12" VERSION)
EXTD=
EXTT0=
EXTT1=
EXTT2=
EXTT3=
EXTT4=
EXTT5=
EXTT6=
EXTT7=
EXTT8=
EXTT9=
EXTT10=
EXTT11=
EXTT12=
EXTT13=
PLAYORDER=
